<?xml version="1.0" encoding="UTF-8" standalone="no"?>
<!DOCTYPE svg PUBLIC "-//W3C//DTD SVG 1.1//EN"
 "http://www.w3.org/Graphics/SVG/1.1/DTD/svg11.dtd">
<!-- Generated by graphviz version 2.38.0 (20140413.2041)
 -->
<!-- Title: G Pages: 1 -->
<svg width="1033pt" height="58pt"
 viewBox="0.00 0.00 1033.00 57.81" xmlns="http://www.w3.org/2000/svg" xmlns:xlink="http://www.w3.org/1999/xlink">
<g id="graph0" class="graph" transform="scale(0.395938 0.395938) rotate(0) translate(4 142)">
<title>G</title>
<polygon fill="white" stroke="none" points="-4,4 -4,-142 2604.99,-142 2604.99,4 -4,4"/>
<g id="clust1" class="cluster"><title>cluster_prep</title>
<path fill="#777777" fill-opacity="0.266667" stroke="black" d="M94,-36C94,-36 320,-36 320,-36 326,-36 332,-42 332,-48 332,-48 332,-98 332,-98 332,-104 326,-110 320,-110 320,-110 94,-110 94,-110 88,-110 82,-104 82,-98 82,-98 82,-48 82,-48 82,-42 88,-36 94,-36"/>
<text text-anchor="middle" x="207" y="-94.8" font-family="Times,serif" font-size="14.00">prep</text>
</g>
<g id="clust2" class="cluster"><title>cluster_layer_1</title>
<path fill="#777777" fill-opacity="0.266667" stroke="black" d="M364,-36C364,-36 680,-36 680,-36 686,-36 692,-42 692,-48 692,-48 692,-98 692,-98 692,-104 686,-110 680,-110 680,-110 364,-110 364,-110 358,-110 352,-104 352,-98 352,-98 352,-48 352,-48 352,-42 358,-36 364,-36"/>
<text text-anchor="middle" x="522" y="-94.8" font-family="Times,serif" font-size="14.00">layer_1</text>
</g>
<g id="clust3" class="cluster"><title>cluster_layer_2</title>
<path fill="#777777" fill-opacity="0.266667" stroke="black" d="M724,-8C724,-8 1670,-8 1670,-8 1676,-8 1682,-14 1682,-20 1682,-20 1682,-118 1682,-118 1682,-124 1676,-130 1670,-130 1670,-130 724,-130 724,-130 718,-130 712,-124 712,-118 712,-118 712,-20 712,-20 712,-14 718,-8 724,-8"/>
<text text-anchor="middle" x="1197" y="-114.8" font-family="Times,serif" font-size="14.00">layer_2</text>
</g>
<g id="clust4" class="cluster"><title>cluster_layer_2/res1</title>
<path fill="#777777" fill-opacity="0.266667" stroke="black" d="M1084,-16C1084,-16 1310,-16 1310,-16 1316,-16 1322,-22 1322,-28 1322,-28 1322,-78 1322,-78 1322,-84 1316,-90 1310,-90 1310,-90 1084,-90 1084,-90 1078,-90 1072,-84 1072,-78 1072,-78 1072,-28 1072,-28 1072,-22 1078,-16 1084,-16"/>
<text text-anchor="middle" x="1197" y="-74.8" font-family="Times,serif" font-size="14.00">res1</text>
</g>
<g id="clust5" class="cluster"><title>cluster_layer_2/res2</title>
<path fill="#777777" fill-opacity="0.266667" stroke="black" d="M1354,-16C1354,-16 1580,-16 1580,-16 1586,-16 1592,-22 1592,-28 1592,-28 1592,-78 1592,-78 1592,-84 1586,-90 1580,-90 1580,-90 1354,-90 1354,-90 1348,-90 1342,-84 1342,-78 1342,-78 1342,-28 1342,-28 1342,-22 1348,-16 1354,-16"/>
<text text-anchor="middle" x="1467" y="-74.8" font-family="Times,serif" font-size="14.00">res2</text>
</g>
<g id="clust6" class="cluster"><title>cluster_layer_3</title>
<path fill="#777777" fill-opacity="0.266667" stroke="black" d="M1714,-36C1714,-36 1940,-36 1940,-36 1946,-36 1952,-42 1952,-48 1952,-48 1952,-98 1952,-98 1952,-104 1946,-110 1940,-110 1940,-110 1714,-110 1714,-110 1708,-110 1702,-104 1702,-98 1702,-98 1702,-48 1702,-48 1702,-42 1708,-36 1714,-36"/>
<text text-anchor="middle" x="1827" y="-94.8" font-family="Times,serif" font-size="14.00">layer_3</text>
</g>
<g id="clust7" class="cluster"><title>cluster_layer_4</title>
<path fill="#777777" fill-opacity="0.266667" stroke="black" d="M1984,-36C1984,-36 2210,-36 2210,-36 2216,-36 2222,-42 2222,-48 2222,-48 2222,-98 2222,-98 2222,-104 2216,-110 2210,-110 2210,-110 1984,-110 1984,-110 1978,-110 1972,-104 1972,-98 1972,-98 1972,-48 1972,-48 1972,-42 1978,-36 1984,-36"/>
<text text-anchor="middle" x="2097" y="-94.8" font-family="Times,serif" font-size="14.00">layer_4</text>
</g>
<g id="clust8" class="cluster"><title>cluster_classifier</title>
<path fill="#777777" fill-opacity="0.266667" stroke="black" d="M2444.99,-36C2444.99,-36 2580.99,-36 2580.99,-36 2586.99,-36 2592.99,-42 2592.99,-48 2592.99,-48 2592.99,-98 2592.99,-98 2592.99,-104 2586.99,-110 2580.99,-110 2580.99,-110 2444.99,-110 2444.99,-110 2438.99,-110 2432.99,-104 2432.99,-98 2432.99,-98 2432.99,-48 2432.99,-48 2432.99,-42 2438.99,-36 2444.99,-36"/>
<text text-anchor="middle" x="2512.99" y="-94.8" font-family="Times,serif" font-size="14.00">classifier</text>
</g>
<!-- prep/conv -->
<g id="node1" class="node"><title>prep/conv</title>
<g id="a_node1"><a xlink:title="Conv2d {&#39;in_channels&#39;: 3, &#39;out_channels&#39;: 64, &#39;kernel_size&#39;: (3, 3), &#39;stride&#39;: 1, &#39;padding&#39;: 1, &#39;dilation&#39;: 1, &#39;groups&#39;: 1, &#39;bias&#39;: False}">
<path fill="#bebada" stroke="black" d="M132,-80C132,-80 102,-80 102,-80 96,-80 90,-74 90,-68 90,-68 90,-56 90,-56 90,-50 96,-44 102,-44 102,-44 132,-44 132,-44 138,-44 144,-50 144,-56 144,-56 144,-68 144,-68 144,-74 138,-80 132,-80"/>
<text text-anchor="middle" x="117" y="-57.8" font-family="Times,serif" font-size="14.00">conv</text>
</a>
</g>
</g>
<!-- prep/bn -->
<g id="node2" class="node"><title>prep/bn</title>
<g id="a_node2"><a xlink:title="BatchNorm2d {&#39;num_features&#39;: 64, &#39;eps&#39;: 1e&#45;05, &#39;momentum&#39;: 0.1, &#39;affine&#39;: True, &#39;track_running_stats&#39;: True}">
<path fill="#ffffb3" stroke="black" d="M222,-80C222,-80 192,-80 192,-80 186,-80 180,-74 180,-68 180,-68 180,-56 180,-56 180,-50 186,-44 192,-44 192,-44 222,-44 222,-44 228,-44 234,-50 234,-56 234,-56 234,-68 234,-68 234,-74 228,-80 222,-80"/>
<text text-anchor="middle" x="207" y="-57.8" font-family="Times,serif" font-size="14.00">bn</text>
</a>
</g>
</g>
<!-- prep/conv&#45;&gt;prep/bn -->
<g id="edge2" class="edge"><title>prep/conv&#45;&gt;prep/bn</title>
<path fill="none" stroke="black" d="M144.403,-62C152.393,-62 161.311,-62 169.824,-62"/>
<polygon fill="black" stroke="black" points="169.919,-65.5001 179.919,-62 169.919,-58.5001 169.919,-65.5001"/>
</g>
<!-- prep/relu -->
<g id="node3" class="node"><title>prep/relu</title>
<g id="a_node3"><a xlink:title="ReLU {&#39;inplace&#39;: True}">
<path fill="#fb8072" stroke="black" d="M312,-80C312,-80 282,-80 282,-80 276,-80 270,-74 270,-68 270,-68 270,-56 270,-56 270,-50 276,-44 282,-44 282,-44 312,-44 312,-44 318,-44 324,-50 324,-56 324,-56 324,-68 324,-68 324,-74 318,-80 312,-80"/>
<text text-anchor="middle" x="297" y="-57.8" font-family="Times,serif" font-size="14.00">relu</text>
</a>
</g>
</g>
<!-- prep/bn&#45;&gt;prep/relu -->
<g id="edge3" class="edge"><title>prep/bn&#45;&gt;prep/relu</title>
<path fill="none" stroke="black" d="M234.403,-62C242.393,-62 251.311,-62 259.824,-62"/>
<polygon fill="black" stroke="black" points="259.919,-65.5001 269.919,-62 259.919,-58.5001 259.919,-65.5001"/>
</g>
<!-- layer_1/conv -->
<g id="node4" class="node"><title>layer_1/conv</title>
<g id="a_node4"><a xlink:title="Conv2d {&#39;in_channels&#39;: 64, &#39;out_channels&#39;: 128, &#39;kernel_size&#39;: 3, &#39;stride&#39;: 1, &#39;padding&#39;: 1, &#39;dilation&#39;: 1, &#39;groups&#39;: 1, &#39;bias&#39;: False}">
<path fill="#bebada" stroke="black" d="M402,-80C402,-80 372,-80 372,-80 366,-80 360,-74 360,-68 360,-68 360,-56 360,-56 360,-50 366,-44 372,-44 372,-44 402,-44 402,-44 408,-44 414,-50 414,-56 414,-56 414,-68 414,-68 414,-74 408,-80 402,-80"/>
<text text-anchor="middle" x="387" y="-57.8" font-family="Times,serif" font-size="14.00">conv</text>
</a>
</g>
</g>
<!-- prep/relu&#45;&gt;layer_1/conv -->
<g id="edge4" class="edge"><title>prep/relu&#45;&gt;layer_1/conv</title>
<path fill="none" stroke="black" d="M324.403,-62C332.393,-62 341.311,-62 349.824,-62"/>
<polygon fill="black" stroke="black" points="349.919,-65.5001 359.919,-62 349.919,-58.5001 349.919,-65.5001"/>
</g>
<!-- layer_1/bn -->
<g id="node5" class="node"><title>layer_1/bn</title>
<g id="a_node5"><a xlink:title="BatchNorm2d {&#39;num_features&#39;: 128, &#39;eps&#39;: 1e&#45;05, &#39;momentum&#39;: 0.1, &#39;affine&#39;: True, &#39;track_running_stats&#39;: True}">
<path fill="#ffffb3" stroke="black" d="M492,-80C492,-80 462,-80 462,-80 456,-80 450,-74 450,-68 450,-68 450,-56 450,-56 450,-50 456,-44 462,-44 462,-44 492,-44 492,-44 498,-44 504,-50 504,-56 504,-56 504,-68 504,-68 504,-74 498,-80 492,-80"/>
<text text-anchor="middle" x="477" y="-57.8" font-family="Times,serif" font-size="14.00">bn</text>
</a>
</g>
</g>
<!-- layer_1/conv&#45;&gt;layer_1/bn -->
<g id="edge5" class="edge"><title>layer_1/conv&#45;&gt;layer_1/bn</title>
<path fill="none" stroke="black" d="M414.403,-62C422.393,-62 431.311,-62 439.824,-62"/>
<polygon fill="black" stroke="black" points="439.919,-65.5001 449.919,-62 439.919,-58.5001 439.919,-65.5001"/>
</g>
<!-- layer_1/relu -->
<g id="node6" class="node"><title>layer_1/relu</title>
<g id="a_node6"><a xlink:title="ReLU {&#39;inplace&#39;: True}">
<path fill="#fb8072" stroke="black" d="M582,-80C582,-80 552,-80 552,-80 546,-80 540,-74 540,-68 540,-68 540,-56 540,-56 540,-50 546,-44 552,-44 552,-44 582,-44 582,-44 588,-44 594,-50 594,-56 594,-56 594,-68 594,-68 594,-74 588,-80 582,-80"/>
<text text-anchor="middle" x="567" y="-57.8" font-family="Times,serif" font-size="14.00">relu</text>
</a>
</g>
</g>
<!-- layer_1/bn&#45;&gt;layer_1/relu -->
<g id="edge6" class="edge"><title>layer_1/bn&#45;&gt;layer_1/relu</title>
<path fill="none" stroke="black" d="M504.403,-62C512.393,-62 521.311,-62 529.824,-62"/>
<polygon fill="black" stroke="black" points="529.919,-65.5001 539.919,-62 529.919,-58.5001 529.919,-65.5001"/>
</g>
<!-- layer_1/pool -->
<g id="node7" class="node"><title>layer_1/pool</title>
<g id="a_node7"><a xlink:title="AvgPool2d {&#39;kernel_size&#39;: 2, &#39;stride&#39;: 2, &#39;padding&#39;: 0, &#39;ceil_mode&#39;: False, &#39;count_include_pad&#39;: True}">
<path fill="#1f78b4" stroke="black" d="M672,-80C672,-80 642,-80 642,-80 636,-80 630,-74 630,-68 630,-68 630,-56 630,-56 630,-50 636,-44 642,-44 642,-44 672,-44 672,-44 678,-44 684,-50 684,-56 684,-56 684,-68 684,-68 684,-74 678,-80 672,-80"/>
<text text-anchor="middle" x="657" y="-57.8" font-family="Times,serif" font-size="14.00">pool</text>
</a>
</g>
</g>
<!-- layer_1/relu&#45;&gt;layer_1/pool -->
<g id="edge7" class="edge"><title>layer_1/relu&#45;&gt;layer_1/pool</title>
<path fill="none" stroke="black" d="M594.403,-62C602.393,-62 611.311,-62 619.824,-62"/>
<polygon fill="black" stroke="black" points="619.919,-65.5001 629.919,-62 619.919,-58.5001 619.919,-65.5001"/>
</g>
<!-- layer_2/conv -->
<g id="node8" class="node"><title>layer_2/conv</title>
<g id="a_node8"><a xlink:title="Conv2d {&#39;in_channels&#39;: 128, &#39;out_channels&#39;: 256, &#39;kernel_size&#39;: 3, &#39;stride&#39;: 1, &#39;padding&#39;: 1, &#39;dilation&#39;: 1, &#39;groups&#39;: 1, &#39;bias&#39;: False}">
<path fill="#bebada" stroke="black" d="M762,-80C762,-80 732,-80 732,-80 726,-80 720,-74 720,-68 720,-68 720,-56 720,-56 720,-50 726,-44 732,-44 732,-44 762,-44 762,-44 768,-44 774,-50 774,-56 774,-56 774,-68 774,-68 774,-74 768,-80 762,-80"/>
<text text-anchor="middle" x="747" y="-57.8" font-family="Times,serif" font-size="14.00">conv</text>
</a>
</g>
</g>
<!-- layer_1/pool&#45;&gt;layer_2/conv -->
<g id="edge8" class="edge"><title>layer_1/pool&#45;&gt;layer_2/conv</title>
<path fill="none" stroke="black" d="M684.403,-62C692.393,-62 701.311,-62 709.824,-62"/>
<polygon fill="black" stroke="black" points="709.919,-65.5001 719.919,-62 709.919,-58.5001 709.919,-65.5001"/>
</g>
<!-- layer_2/bn -->
<g id="node9" class="node"><title>layer_2/bn</title>
<g id="a_node9"><a xlink:title="BatchNorm2d {&#39;num_features&#39;: 256, &#39;eps&#39;: 1e&#45;05, &#39;momentum&#39;: 0.1, &#39;affine&#39;: True, &#39;track_running_stats&#39;: True}">
<path fill="#ffffb3" stroke="black" d="M852,-80C852,-80 822,-80 822,-80 816,-80 810,-74 810,-68 810,-68 810,-56 810,-56 810,-50 816,-44 822,-44 822,-44 852,-44 852,-44 858,-44 864,-50 864,-56 864,-56 864,-68 864,-68 864,-74 858,-80 852,-80"/>
<text text-anchor="middle" x="837" y="-57.8" font-family="Times,serif" font-size="14.00">bn</text>
</a>
</g>
</g>
<!-- layer_2/conv&#45;&gt;layer_2/bn -->
<g id="edge9" class="edge"><title>layer_2/conv&#45;&gt;layer_2/bn</title>
<path fill="none" stroke="black" d="M774.403,-62C782.393,-62 791.311,-62 799.824,-62"/>
<polygon fill="black" stroke="black" points="799.919,-65.5001 809.919,-62 799.919,-58.5001 799.919,-65.5001"/>
</g>
<!-- layer_2/relu -->
<g id="node10" class="node"><title>layer_2/relu</title>
<g id="a_node10"><a xlink:title="ReLU {&#39;inplace&#39;: True}">
<path fill="#fb8072" stroke="black" d="M942,-80C942,-80 912,-80 912,-80 906,-80 900,-74 900,-68 900,-68 900,-56 900,-56 900,-50 906,-44 912,-44 912,-44 942,-44 942,-44 948,-44 954,-50 954,-56 954,-56 954,-68 954,-68 954,-74 948,-80 942,-80"/>
<text text-anchor="middle" x="927" y="-57.8" font-family="Times,serif" font-size="14.00">relu</text>
</a>
</g>
</g>
<!-- layer_2/bn&#45;&gt;layer_2/relu -->
<g id="edge10" class="edge"><title>layer_2/bn&#45;&gt;layer_2/relu</title>
<path fill="none" stroke="black" d="M864.403,-62C872.393,-62 881.311,-62 889.824,-62"/>
<polygon fill="black" stroke="black" points="889.919,-65.5001 899.919,-62 889.919,-58.5001 889.919,-65.5001"/>
</g>
<!-- layer_2/pool -->
<g id="node11" class="node"><title>layer_2/pool</title>
<g id="a_node11"><a xlink:title="AvgPool2d {&#39;kernel_size&#39;: 2, &#39;stride&#39;: 2, &#39;padding&#39;: 0, &#39;ceil_mode&#39;: False, &#39;count_include_pad&#39;: True}">
<path fill="#1f78b4" stroke="black" d="M1032,-80C1032,-80 1002,-80 1002,-80 996,-80 990,-74 990,-68 990,-68 990,-56 990,-56 990,-50 996,-44 1002,-44 1002,-44 1032,-44 1032,-44 1038,-44 1044,-50 1044,-56 1044,-56 1044,-68 1044,-68 1044,-74 1038,-80 1032,-80"/>
<text text-anchor="middle" x="1017" y="-57.8" font-family="Times,serif" font-size="14.00">pool</text>
</a>
</g>
</g>
<!-- layer_2/relu&#45;&gt;layer_2/pool -->
<g id="edge11" class="edge"><title>layer_2/relu&#45;&gt;layer_2/pool</title>
<path fill="none" stroke="black" d="M954.403,-62C962.393,-62 971.311,-62 979.824,-62"/>
<polygon fill="black" stroke="black" points="979.919,-65.5001 989.919,-62 979.919,-58.5001 979.919,-65.5001"/>
</g>
<!-- layer_2/res1/conv -->
<g id="node12" class="node"><title>layer_2/res1/conv</title>
<g id="a_node12"><a xlink:title="Conv2d {&#39;in_channels&#39;: 256, &#39;out_channels&#39;: 256, &#39;kernel_size&#39;: 3, &#39;stride&#39;: 1, &#39;padding&#39;: 1, &#39;dilation&#39;: 1, &#39;groups&#39;: 1, &#39;bias&#39;: False}">
<path fill="#bebada" stroke="black" d="M1122,-60C1122,-60 1092,-60 1092,-60 1086,-60 1080,-54 1080,-48 1080,-48 1080,-36 1080,-36 1080,-30 1086,-24 1092,-24 1092,-24 1122,-24 1122,-24 1128,-24 1134,-30 1134,-36 1134,-36 1134,-48 1134,-48 1134,-54 1128,-60 1122,-60"/>
<text text-anchor="middle" x="1107" y="-37.8" font-family="Times,serif" font-size="14.00">conv</text>
</a>
</g>
</g>
<!-- layer_2/pool&#45;&gt;layer_2/res1/conv -->
<g id="edge12" class="edge"><title>layer_2/pool&#45;&gt;layer_2/res1/conv</title>
<path fill="none" stroke="black" d="M1044.4,-55.9993C1052.48,-54.1634 1061.51,-52.1121 1070.1,-50.158"/>
<polygon fill="black" stroke="black" points="1070.94,-53.5568 1079.92,-47.9275 1069.39,-46.7308 1070.94,-53.5568"/>
</g>
<!-- layer_2/add -->
<g id="node18" class="node"><title>layer_2/add</title>
<g id="a_node18"><a xlink:title="Add {&#39;inplace&#39;: False}">
<path fill="#8dd3c7" stroke="black" d="M1662,-80C1662,-80 1632,-80 1632,-80 1626,-80 1620,-74 1620,-68 1620,-68 1620,-56 1620,-56 1620,-50 1626,-44 1632,-44 1632,-44 1662,-44 1662,-44 1668,-44 1674,-50 1674,-56 1674,-56 1674,-68 1674,-68 1674,-74 1668,-80 1662,-80"/>
<text text-anchor="middle" x="1647" y="-57.8" font-family="Times,serif" font-size="14.00">add</text>
</a>
</g>
</g>
<!-- layer_2/pool&#45;&gt;layer_2/add -->
<g id="edge18" class="edge"><title>layer_2/pool&#45;&gt;layer_2/add</title>
<path fill="none" stroke="black" d="M1042.62,-80.06C1051.45,-85.5709 1061.76,-90.9705 1072,-94 1124.89,-109.647 1140.84,-99 1196,-99 1196,-99 1196,-99 1468,-99 1523.16,-99 1539.11,-109.647 1592,-94 1599.04,-91.9172 1606.12,-88.7142 1612.72,-85.1249"/>
<polygon fill="black" stroke="black" points="1614.52,-88.128 1621.38,-80.06 1610.98,-82.0846 1614.52,-88.128"/>
</g>
<!-- layer_2/res1/bn -->
<g id="node13" class="node"><title>layer_2/res1/bn</title>
<g id="a_node13"><a xlink:title="BatchNorm2d {&#39;num_features&#39;: 256, &#39;eps&#39;: 1e&#45;05, &#39;momentum&#39;: 0.1, &#39;affine&#39;: True, &#39;track_running_stats&#39;: True}">
<path fill="#ffffb3" stroke="black" d="M1212,-60C1212,-60 1182,-60 1182,-60 1176,-60 1170,-54 1170,-48 1170,-48 1170,-36 1170,-36 1170,-30 1176,-24 1182,-24 1182,-24 1212,-24 1212,-24 1218,-24 1224,-30 1224,-36 1224,-36 1224,-48 1224,-48 1224,-54 1218,-60 1212,-60"/>
<text text-anchor="middle" x="1197" y="-37.8" font-family="Times,serif" font-size="14.00">bn</text>
</a>
</g>
</g>
<!-- layer_2/res1/conv&#45;&gt;layer_2/res1/bn -->
<g id="edge13" class="edge"><title>layer_2/res1/conv&#45;&gt;layer_2/res1/bn</title>
<path fill="none" stroke="black" d="M1134.4,-42C1142.39,-42 1151.31,-42 1159.82,-42"/>
<polygon fill="black" stroke="black" points="1159.92,-45.5001 1169.92,-42 1159.92,-38.5001 1159.92,-45.5001"/>
</g>
<!-- layer_2/res1/relu -->
<g id="node14" class="node"><title>layer_2/res1/relu</title>
<g id="a_node14"><a xlink:title="ReLU {&#39;inplace&#39;: True}">
<path fill="#fb8072" stroke="black" d="M1302,-60C1302,-60 1272,-60 1272,-60 1266,-60 1260,-54 1260,-48 1260,-48 1260,-36 1260,-36 1260,-30 1266,-24 1272,-24 1272,-24 1302,-24 1302,-24 1308,-24 1314,-30 1314,-36 1314,-36 1314,-48 1314,-48 1314,-54 1308,-60 1302,-60"/>
<text text-anchor="middle" x="1287" y="-37.8" font-family="Times,serif" font-size="14.00">relu</text>
</a>
</g>
</g>
<!-- layer_2/res1/bn&#45;&gt;layer_2/res1/relu -->
<g id="edge14" class="edge"><title>layer_2/res1/bn&#45;&gt;layer_2/res1/relu</title>
<path fill="none" stroke="black" d="M1224.4,-42C1232.39,-42 1241.31,-42 1249.82,-42"/>
<polygon fill="black" stroke="black" points="1249.92,-45.5001 1259.92,-42 1249.92,-38.5001 1249.92,-45.5001"/>
</g>
<!-- layer_2/res2/conv -->
<g id="node15" class="node"><title>layer_2/res2/conv</title>
<g id="a_node15"><a xlink:title="Conv2d {&#39;in_channels&#39;: 256, &#39;out_channels&#39;: 256, &#39;kernel_size&#39;: 3, &#39;stride&#39;: 1, &#39;padding&#39;: 1, &#39;dilation&#39;: 1, &#39;groups&#39;: 1, &#39;bias&#39;: False}">
<path fill="#bebada" stroke="black" d="M1392,-60C1392,-60 1362,-60 1362,-60 1356,-60 1350,-54 1350,-48 1350,-48 1350,-36 1350,-36 1350,-30 1356,-24 1362,-24 1362,-24 1392,-24 1392,-24 1398,-24 1404,-30 1404,-36 1404,-36 1404,-48 1404,-48 1404,-54 1398,-60 1392,-60"/>
<text text-anchor="middle" x="1377" y="-37.8" font-family="Times,serif" font-size="14.00">conv</text>
</a>
</g>
</g>
<!-- layer_2/res1/relu&#45;&gt;layer_2/res2/conv -->
<g id="edge15" class="edge"><title>layer_2/res1/relu&#45;&gt;layer_2/res2/conv</title>
<path fill="none" stroke="black" d="M1314.4,-42C1322.39,-42 1331.31,-42 1339.82,-42"/>
<polygon fill="black" stroke="black" points="1339.92,-45.5001 1349.92,-42 1339.92,-38.5001 1339.92,-45.5001"/>
</g>
<!-- layer_2/res2/bn -->
<g id="node16" class="node"><title>layer_2/res2/bn</title>
<g id="a_node16"><a xlink:title="BatchNorm2d {&#39;num_features&#39;: 256, &#39;eps&#39;: 1e&#45;05, &#39;momentum&#39;: 0.1, &#39;affine&#39;: True, &#39;track_running_stats&#39;: True}">
<path fill="#ffffb3" stroke="black" d="M1482,-60C1482,-60 1452,-60 1452,-60 1446,-60 1440,-54 1440,-48 1440,-48 1440,-36 1440,-36 1440,-30 1446,-24 1452,-24 1452,-24 1482,-24 1482,-24 1488,-24 1494,-30 1494,-36 1494,-36 1494,-48 1494,-48 1494,-54 1488,-60 1482,-60"/>
<text text-anchor="middle" x="1467" y="-37.8" font-family="Times,serif" font-size="14.00">bn</text>
</a>
</g>
</g>
<!-- layer_2/res2/conv&#45;&gt;layer_2/res2/bn -->
<g id="edge16" class="edge"><title>layer_2/res2/conv&#45;&gt;layer_2/res2/bn</title>
<path fill="none" stroke="black" d="M1404.4,-42C1412.39,-42 1421.31,-42 1429.82,-42"/>
<polygon fill="black" stroke="black" points="1429.92,-45.5001 1439.92,-42 1429.92,-38.5001 1429.92,-45.5001"/>
</g>
<!-- layer_2/res2/relu -->
<g id="node17" class="node"><title>layer_2/res2/relu</title>
<g id="a_node17"><a xlink:title="ReLU {&#39;inplace&#39;: True}">
<path fill="#fb8072" stroke="black" d="M1572,-60C1572,-60 1542,-60 1542,-60 1536,-60 1530,-54 1530,-48 1530,-48 1530,-36 1530,-36 1530,-30 1536,-24 1542,-24 1542,-24 1572,-24 1572,-24 1578,-24 1584,-30 1584,-36 1584,-36 1584,-48 1584,-48 1584,-54 1578,-60 1572,-60"/>
<text text-anchor="middle" x="1557" y="-37.8" font-family="Times,serif" font-size="14.00">relu</text>
</a>
</g>
</g>
<!-- layer_2/res2/bn&#45;&gt;layer_2/res2/relu -->
<g id="edge17" class="edge"><title>layer_2/res2/bn&#45;&gt;layer_2/res2/relu</title>
<path fill="none" stroke="black" d="M1494.4,-42C1502.39,-42 1511.31,-42 1519.82,-42"/>
<polygon fill="black" stroke="black" points="1519.92,-45.5001 1529.92,-42 1519.92,-38.5001 1519.92,-45.5001"/>
</g>
<!-- layer_2/res2/relu&#45;&gt;layer_2/add -->
<g id="edge19" class="edge"><title>layer_2/res2/relu&#45;&gt;layer_2/add</title>
<path fill="none" stroke="black" d="M1584.4,-48.0007C1592.48,-49.8366 1601.51,-51.8879 1610.1,-53.842"/>
<polygon fill="black" stroke="black" points="1609.39,-57.2692 1619.92,-56.0725 1610.94,-50.4432 1609.39,-57.2692"/>
</g>
<!-- layer_3/conv -->
<g id="node19" class="node"><title>layer_3/conv</title>
<g id="a_node19"><a xlink:title="Conv2d {&#39;in_channels&#39;: 256, &#39;out_channels&#39;: 256, &#39;kernel_size&#39;: 3, &#39;stride&#39;: 1, &#39;padding&#39;: 1, &#39;dilation&#39;: 1, &#39;groups&#39;: 1, &#39;bias&#39;: False}">
<path fill="#bebada" stroke="black" d="M1752,-80C1752,-80 1722,-80 1722,-80 1716,-80 1710,-74 1710,-68 1710,-68 1710,-56 1710,-56 1710,-50 1716,-44 1722,-44 1722,-44 1752,-44 1752,-44 1758,-44 1764,-50 1764,-56 1764,-56 1764,-68 1764,-68 1764,-74 1758,-80 1752,-80"/>
<text text-anchor="middle" x="1737" y="-57.8" font-family="Times,serif" font-size="14.00">conv</text>
</a>
</g>
</g>
<!-- layer_2/add&#45;&gt;layer_3/conv -->
<g id="edge20" class="edge"><title>layer_2/add&#45;&gt;layer_3/conv</title>
<path fill="none" stroke="black" d="M1674.4,-62C1682.39,-62 1691.31,-62 1699.82,-62"/>
<polygon fill="black" stroke="black" points="1699.92,-65.5001 1709.92,-62 1699.92,-58.5001 1699.92,-65.5001"/>
</g>
<!-- layer_3/bn -->
<g id="node20" class="node"><title>layer_3/bn</title>
<g id="a_node20"><a xlink:title="BatchNorm2d {&#39;num_features&#39;: 256, &#39;eps&#39;: 1e&#45;05, &#39;momentum&#39;: 0.1, &#39;affine&#39;: True, &#39;track_running_stats&#39;: True}">
<path fill="#ffffb3" stroke="black" d="M1842,-80C1842,-80 1812,-80 1812,-80 1806,-80 1800,-74 1800,-68 1800,-68 1800,-56 1800,-56 1800,-50 1806,-44 1812,-44 1812,-44 1842,-44 1842,-44 1848,-44 1854,-50 1854,-56 1854,-56 1854,-68 1854,-68 1854,-74 1848,-80 1842,-80"/>
<text text-anchor="middle" x="1827" y="-57.8" font-family="Times,serif" font-size="14.00">bn</text>
</a>
</g>
</g>
<!-- layer_3/conv&#45;&gt;layer_3/bn -->
<g id="edge21" class="edge"><title>layer_3/conv&#45;&gt;layer_3/bn</title>
<path fill="none" stroke="black" d="M1764.4,-62C1772.39,-62 1781.31,-62 1789.82,-62"/>
<polygon fill="black" stroke="black" points="1789.92,-65.5001 1799.92,-62 1789.92,-58.5001 1789.92,-65.5001"/>
</g>
<!-- layer_3/relu -->
<g id="node21" class="node"><title>layer_3/relu</title>
<g id="a_node21"><a xlink:title="ReLU {&#39;inplace&#39;: True}">
<path fill="#fb8072" stroke="black" d="M1932,-80C1932,-80 1902,-80 1902,-80 1896,-80 1890,-74 1890,-68 1890,-68 1890,-56 1890,-56 1890,-50 1896,-44 1902,-44 1902,-44 1932,-44 1932,-44 1938,-44 1944,-50 1944,-56 1944,-56 1944,-68 1944,-68 1944,-74 1938,-80 1932,-80"/>
<text text-anchor="middle" x="1917" y="-57.8" font-family="Times,serif" font-size="14.00">relu</text>
</a>
</g>
</g>
<!-- layer_3/bn&#45;&gt;layer_3/relu -->
<g id="edge22" class="edge"><title>layer_3/bn&#45;&gt;layer_3/relu</title>
<path fill="none" stroke="black" d="M1854.4,-62C1862.39,-62 1871.31,-62 1879.82,-62"/>
<polygon fill="black" stroke="black" points="1879.92,-65.5001 1889.92,-62 1879.92,-58.5001 1879.92,-65.5001"/>
</g>
<!-- layer_4/conv -->
<g id="node22" class="node"><title>layer_4/conv</title>
<g id="a_node22"><a xlink:title="Conv2d {&#39;in_channels&#39;: 256, &#39;out_channels&#39;: 512, &#39;kernel_size&#39;: 3, &#39;stride&#39;: 1, &#39;padding&#39;: 1, &#39;dilation&#39;: 1, &#39;groups&#39;: 1, &#39;bias&#39;: False}">
<path fill="#bebada" stroke="black" d="M2022,-80C2022,-80 1992,-80 1992,-80 1986,-80 1980,-74 1980,-68 1980,-68 1980,-56 1980,-56 1980,-50 1986,-44 1992,-44 1992,-44 2022,-44 2022,-44 2028,-44 2034,-50 2034,-56 2034,-56 2034,-68 2034,-68 2034,-74 2028,-80 2022,-80"/>
<text text-anchor="middle" x="2007" y="-57.8" font-family="Times,serif" font-size="14.00">conv</text>
</a>
</g>
</g>
<!-- layer_3/relu&#45;&gt;layer_4/conv -->
<g id="edge23" class="edge"><title>layer_3/relu&#45;&gt;layer_4/conv</title>
<path fill="none" stroke="black" d="M1944.4,-62C1952.39,-62 1961.31,-62 1969.82,-62"/>
<polygon fill="black" stroke="black" points="1969.92,-65.5001 1979.92,-62 1969.92,-58.5001 1969.92,-65.5001"/>
</g>
<!-- layer_4/bn -->
<g id="node23" class="node"><title>layer_4/bn</title>
<g id="a_node23"><a xlink:title="BatchNorm2d {&#39;num_features&#39;: 512, &#39;eps&#39;: 1e&#45;05, &#39;momentum&#39;: 0.1, &#39;affine&#39;: True, &#39;track_running_stats&#39;: True}">
<path fill="#ffffb3" stroke="black" d="M2112,-80C2112,-80 2082,-80 2082,-80 2076,-80 2070,-74 2070,-68 2070,-68 2070,-56 2070,-56 2070,-50 2076,-44 2082,-44 2082,-44 2112,-44 2112,-44 2118,-44 2124,-50 2124,-56 2124,-56 2124,-68 2124,-68 2124,-74 2118,-80 2112,-80"/>
<text text-anchor="middle" x="2097" y="-57.8" font-family="Times,serif" font-size="14.00">bn</text>
</a>
</g>
</g>
<!-- layer_4/conv&#45;&gt;layer_4/bn -->
<g id="edge24" class="edge"><title>layer_4/conv&#45;&gt;layer_4/bn</title>
<path fill="none" stroke="black" d="M2034.4,-62C2042.39,-62 2051.31,-62 2059.82,-62"/>
<polygon fill="black" stroke="black" points="2059.92,-65.5001 2069.92,-62 2059.92,-58.5001 2059.92,-65.5001"/>
</g>
<!-- layer_4/relu -->
<g id="node24" class="node"><title>layer_4/relu</title>
<g id="a_node24"><a xlink:title="ReLU {&#39;inplace&#39;: True}">
<path fill="#fb8072" stroke="black" d="M2202,-80C2202,-80 2172,-80 2172,-80 2166,-80 2160,-74 2160,-68 2160,-68 2160,-56 2160,-56 2160,-50 2166,-44 2172,-44 2172,-44 2202,-44 2202,-44 2208,-44 2214,-50 2214,-56 2214,-56 2214,-68 2214,-68 2214,-74 2208,-80 2202,-80"/>
<text text-anchor="middle" x="2187" y="-57.8" font-family="Times,serif" font-size="14.00">relu</text>
</a>
</g>
</g>
<!-- layer_4/bn&#45;&gt;layer_4/relu -->
<g id="edge25" class="edge"><title>layer_4/bn&#45;&gt;layer_4/relu</title>
<path fill="none" stroke="black" d="M2124.4,-62C2132.39,-62 2141.31,-62 2149.82,-62"/>
<polygon fill="black" stroke="black" points="2149.92,-65.5001 2159.92,-62 2149.92,-58.5001 2149.92,-65.5001"/>
</g>
<!-- maxpool -->
<g id="node25" class="node"><title>maxpool</title>
<g id="a_node25"><a xlink:title="AdaptiveMaxPool2d {&#39;output_size&#39;: 1, &#39;return_indices&#39;: False}">
<path fill="#33a02c" stroke="black" d="M2302.99,-80C2302.99,-80 2262,-80 2262,-80 2256,-80 2250,-74 2250,-68 2250,-68 2250,-56 2250,-56 2250,-50 2256,-44 2262,-44 2262,-44 2302.99,-44 2302.99,-44 2308.99,-44 2314.99,-50 2314.99,-56 2314.99,-56 2314.99,-68 2314.99,-68 2314.99,-74 2308.99,-80 2302.99,-80"/>
<text text-anchor="middle" x="2282.5" y="-57.8" font-family="Times,serif" font-size="14.00">maxpool</text>
</a>
</g>
</g>
<!-- layer_4/relu&#45;&gt;maxpool -->
<g id="edge26" class="edge"><title>layer_4/relu&#45;&gt;maxpool</title>
<path fill="none" stroke="black" d="M2214.04,-62C2222.04,-62 2231.06,-62 2239.83,-62"/>
<polygon fill="black" stroke="black" points="2239.94,-65.5001 2249.94,-62 2239.94,-58.5001 2239.94,-65.5001"/>
</g>
<!-- flatten -->
<g id="node26" class="node"><title>flatten</title>
<g id="a_node26"><a xlink:title="Flatten {}">
<path fill="#e31a1c" stroke="black" d="M2392.99,-80C2392.99,-80 2362.99,-80 2362.99,-80 2356.99,-80 2350.99,-74 2350.99,-68 2350.99,-68 2350.99,-56 2350.99,-56 2350.99,-50 2356.99,-44 2362.99,-44 2362.99,-44 2392.99,-44 2392.99,-44 2398.99,-44 2404.99,-50 2404.99,-56 2404.99,-56 2404.99,-68 2404.99,-68 2404.99,-74 2398.99,-80 2392.99,-80"/>
<text text-anchor="middle" x="2377.99" y="-57.8" font-family="Times,serif" font-size="14.00">flatten</text>
</a>
</g>
</g>
<!-- maxpool&#45;&gt;flatten -->
<g id="edge27" class="edge"><title>maxpool&#45;&gt;flatten</title>
<path fill="none" stroke="black" d="M2315.15,-62C2323.44,-62 2332.43,-62 2340.93,-62"/>
<polygon fill="black" stroke="black" points="2340.96,-65.5001 2350.96,-62 2340.96,-58.5001 2340.96,-65.5001"/>
</g>
<!-- classifier/linear -->
<g id="node27" class="node"><title>classifier/linear</title>
<g id="a_node27"><a xlink:title="Linear {&#39;in_features&#39;: 512, &#39;out_features&#39;: 10, &#39;bias&#39;: True}">
<path fill="#80b1d3" stroke="black" d="M2482.99,-80C2482.99,-80 2452.99,-80 2452.99,-80 2446.99,-80 2440.99,-74 2440.99,-68 2440.99,-68 2440.99,-56 2440.99,-56 2440.99,-50 2446.99,-44 2452.99,-44 2452.99,-44 2482.99,-44 2482.99,-44 2488.99,-44 2494.99,-50 2494.99,-56 2494.99,-56 2494.99,-68 2494.99,-68 2494.99,-74 2488.99,-80 2482.99,-80"/>
<text text-anchor="middle" x="2467.99" y="-57.8" font-family="Times,serif" font-size="14.00">linear</text>
</a>
</g>
</g>
<!-- flatten&#45;&gt;classifier/linear -->
<g id="edge28" class="edge"><title>flatten&#45;&gt;classifier/linear</title>
<path fill="none" stroke="black" d="M2405.4,-62C2413.39,-62 2422.3,-62 2430.82,-62"/>
<polygon fill="black" stroke="black" points="2430.91,-65.5001 2440.91,-62 2430.91,-58.5001 2430.91,-65.5001"/>
</g>
<!-- classifier/scale -->
<g id="node28" class="node"><title>classifier/scale</title>
<g id="a_node28"><a xlink:title="Mul {&#39;weight&#39;: 0.25}">
<path fill="#ff7f00" stroke="black" d="M2572.99,-80C2572.99,-80 2542.99,-80 2542.99,-80 2536.99,-80 2530.99,-74 2530.99,-68 2530.99,-68 2530.99,-56 2530.99,-56 2530.99,-50 2536.99,-44 2542.99,-44 2542.99,-44 2572.99,-44 2572.99,-44 2578.99,-44 2584.99,-50 2584.99,-56 2584.99,-56 2584.99,-68 2584.99,-68 2584.99,-74 2578.99,-80 2572.99,-80"/>
<text text-anchor="middle" x="2557.99" y="-57.8" font-family="Times,serif" font-size="14.00">scale</text>
</a>
</g>
</g>
<!-- classifier/linear&#45;&gt;classifier/scale -->
<g id="edge29" class="edge"><title>classifier/linear&#45;&gt;classifier/scale</title>
<path fill="none" stroke="black" d="M2495.4,-62C2503.39,-62 2512.3,-62 2520.82,-62"/>
<polygon fill="black" stroke="black" points="2520.91,-65.5001 2530.91,-62 2520.91,-58.5001 2520.91,-65.5001"/>
</g>
<!-- input -->
<g id="node29" class="node"><title>input</title>
<path fill="#ffffff" stroke="black" d="M42,-80C42,-80 12,-80 12,-80 6,-80 0,-74 0,-68 0,-68 0,-56 0,-56 0,-50 6,-44 12,-44 12,-44 42,-44 42,-44 48,-44 54,-50 54,-56 54,-56 54,-68 54,-68 54,-74 48,-80 42,-80"/>
<text text-anchor="middle" x="27" y="-57.8" font-family="Times,serif" font-size="14.00">input</text>
</g>
<!-- input&#45;&gt;prep/conv -->
<g id="edge1" class="edge"><title>input&#45;&gt;prep/conv</title>
<path fill="none" stroke="black" d="M54.4029,-62C62.3932,-62 71.3106,-62 79.8241,-62"/>
<polygon fill="black" stroke="black" points="79.919,-65.5001 89.919,-62 79.919,-58.5001 79.919,-65.5001"/>
</g>
</g>
</svg>
