<?xml version="1.0" encoding="UTF-8" standalone="no"?>
<!DOCTYPE svg PUBLIC "-//W3C//DTD SVG 1.1//EN"
 "http://www.w3.org/Graphics/SVG/1.1/DTD/svg11.dtd">
<!-- Generated by graphviz version 2.38.0 (20140413.2041)
 -->
<!-- Title: G Pages: 1 -->
<svg width="1080pt" height="62pt"
 viewBox="0.00 0.00 1080.00 61.65" xmlns="http://www.w3.org/2000/svg" xmlns:xlink="http://www.w3.org/1999/xlink">
<g id="graph0" class="graph" transform="scale(0.354331 0.354331) rotate(0) translate(4 170)">
<title>G</title>
<polygon fill="white" stroke="none" points="-4,4 -4,-170 3044,-170 3044,4 -4,4"/>
<g id="clust1" class="cluster"><title>cluster_prep</title>
<path fill="#777777" fill-opacity="0.266667" stroke="black" d="M94,-52C94,-52 320,-52 320,-52 326,-52 332,-58 332,-64 332,-64 332,-114 332,-114 332,-120 326,-126 320,-126 320,-126 94,-126 94,-126 88,-126 82,-120 82,-114 82,-114 82,-64 82,-64 82,-58 88,-52 94,-52"/>
<text text-anchor="middle" x="207" y="-110.8" font-family="Times,serif" font-size="14.00">prep</text>
</g>
<g id="clust2" class="cluster"><title>cluster_layer1</title>
<path fill="#777777" fill-opacity="0.266667" stroke="black" d="M364,-8C364,-8 1318,-8 1318,-8 1324,-8 1330,-14 1330,-20 1330,-20 1330,-146 1330,-146 1330,-152 1324,-158 1318,-158 1318,-158 364,-158 364,-158 358,-158 352,-152 352,-146 352,-146 352,-20 352,-20 352,-14 358,-8 364,-8"/>
<text text-anchor="middle" x="841" y="-142.8" font-family="Times,serif" font-size="14.00">layer1</text>
</g>
<g id="clust3" class="cluster"><title>cluster_layer1_residual</title>
<path fill="#777777" fill-opacity="0.266667" stroke="black" d="M716,-16C716,-16 1310,-16 1310,-16 1316,-16 1322,-22 1322,-28 1322,-28 1322,-116 1322,-116 1322,-122 1316,-128 1310,-128 1310,-128 716,-128 716,-128 710,-128 704,-122 704,-116 704,-116 704,-28 704,-28 704,-22 710,-16 716,-16"/>
<text text-anchor="middle" x="1013" y="-112.8" font-family="Times,serif" font-size="14.00">residual</text>
</g>
<g id="clust4" class="cluster"><title>cluster_layer1_residual_res1</title>
<path fill="#777777" fill-opacity="0.266667" stroke="black" d="M724,-24C724,-24 950,-24 950,-24 956,-24 962,-30 962,-36 962,-36 962,-86 962,-86 962,-92 956,-98 950,-98 950,-98 724,-98 724,-98 718,-98 712,-92 712,-86 712,-86 712,-36 712,-36 712,-30 718,-24 724,-24"/>
<text text-anchor="middle" x="837" y="-82.8" font-family="Times,serif" font-size="14.00">res1</text>
</g>
<g id="clust5" class="cluster"><title>cluster_layer1_residual_res2</title>
<path fill="#777777" fill-opacity="0.266667" stroke="black" d="M994,-24C994,-24 1220,-24 1220,-24 1226,-24 1232,-30 1232,-36 1232,-36 1232,-86 1232,-86 1232,-92 1226,-98 1220,-98 1220,-98 994,-98 994,-98 988,-98 982,-92 982,-86 982,-86 982,-36 982,-36 982,-30 988,-24 994,-24"/>
<text text-anchor="middle" x="1107" y="-82.8" font-family="Times,serif" font-size="14.00">res2</text>
</g>
<g id="clust6" class="cluster"><title>cluster_layer2</title>
<path fill="#777777" fill-opacity="0.266667" stroke="black" d="M1354,-39C1354,-39 1670,-39 1670,-39 1676,-39 1682,-45 1682,-51 1682,-51 1682,-101 1682,-101 1682,-107 1676,-113 1670,-113 1670,-113 1354,-113 1354,-113 1348,-113 1342,-107 1342,-101 1342,-101 1342,-51 1342,-51 1342,-45 1348,-39 1354,-39"/>
<text text-anchor="middle" x="1512" y="-97.8" font-family="Times,serif" font-size="14.00">layer2</text>
</g>
<g id="clust7" class="cluster"><title>cluster_layer3</title>
<path fill="#777777" fill-opacity="0.266667" stroke="black" d="M1714,-8C1714,-8 2668,-8 2668,-8 2674,-8 2680,-14 2680,-20 2680,-20 2680,-146 2680,-146 2680,-152 2674,-158 2668,-158 2668,-158 1714,-158 1714,-158 1708,-158 1702,-152 1702,-146 1702,-146 1702,-20 1702,-20 1702,-14 1708,-8 1714,-8"/>
<text text-anchor="middle" x="2191" y="-142.8" font-family="Times,serif" font-size="14.00">layer3</text>
</g>
<g id="clust8" class="cluster"><title>cluster_layer3_residual</title>
<path fill="#777777" fill-opacity="0.266667" stroke="black" d="M2066,-16C2066,-16 2660,-16 2660,-16 2666,-16 2672,-22 2672,-28 2672,-28 2672,-116 2672,-116 2672,-122 2666,-128 2660,-128 2660,-128 2066,-128 2066,-128 2060,-128 2054,-122 2054,-116 2054,-116 2054,-28 2054,-28 2054,-22 2060,-16 2066,-16"/>
<text text-anchor="middle" x="2363" y="-112.8" font-family="Times,serif" font-size="14.00">residual</text>
</g>
<g id="clust9" class="cluster"><title>cluster_layer3_residual_res1</title>
<path fill="#777777" fill-opacity="0.266667" stroke="black" d="M2074,-24C2074,-24 2300,-24 2300,-24 2306,-24 2312,-30 2312,-36 2312,-36 2312,-86 2312,-86 2312,-92 2306,-98 2300,-98 2300,-98 2074,-98 2074,-98 2068,-98 2062,-92 2062,-86 2062,-86 2062,-36 2062,-36 2062,-30 2068,-24 2074,-24"/>
<text text-anchor="middle" x="2187" y="-82.8" font-family="Times,serif" font-size="14.00">res1</text>
</g>
<g id="clust10" class="cluster"><title>cluster_layer3_residual_res2</title>
<path fill="#777777" fill-opacity="0.266667" stroke="black" d="M2344,-24C2344,-24 2570,-24 2570,-24 2576,-24 2582,-30 2582,-36 2582,-36 2582,-86 2582,-86 2582,-92 2576,-98 2570,-98 2570,-98 2344,-98 2344,-98 2338,-98 2332,-92 2332,-86 2332,-86 2332,-36 2332,-36 2332,-30 2338,-24 2344,-24"/>
<text text-anchor="middle" x="2457" y="-82.8" font-family="Times,serif" font-size="14.00">res2</text>
</g>
<g id="clust11" class="cluster"><title>cluster_classifier</title>
<path fill="#777777" fill-opacity="0.266667" stroke="black" d="M2704,-39C2704,-39 3020,-39 3020,-39 3026,-39 3032,-45 3032,-51 3032,-51 3032,-101 3032,-101 3032,-107 3026,-113 3020,-113 3020,-113 2704,-113 2704,-113 2698,-113 2692,-107 2692,-101 2692,-101 2692,-51 2692,-51 2692,-45 2698,-39 2704,-39"/>
<text text-anchor="middle" x="2862" y="-97.8" font-family="Times,serif" font-size="14.00">classifier</text>
</g>
<!-- prep_conv -->
<g id="node1" class="node"><title>prep_conv</title>
<g id="a_node1"><a xlink:title="Conv2d {&#39;in_channels&#39;: 3, &#39;out_channels&#39;: 64, &#39;kernel_size&#39;: (3, 3), &#39;stride&#39;: (1, 1), &#39;padding&#39;: (1, 1), &#39;dilation&#39;: (1, 1), &#39;groups&#39;: 1, &#39;bias&#39;: None}">
<path fill="#bebada" stroke="black" d="M132,-96C132,-96 102,-96 102,-96 96,-96 90,-90 90,-84 90,-84 90,-72 90,-72 90,-66 96,-60 102,-60 102,-60 132,-60 132,-60 138,-60 144,-66 144,-72 144,-72 144,-84 144,-84 144,-90 138,-96 132,-96"/>
<text text-anchor="middle" x="117" y="-73.8" font-family="Times,serif" font-size="14.00">conv</text>
</a>
</g>
</g>
<!-- prep_bn -->
<g id="node2" class="node"><title>prep_bn</title>
<g id="a_node2"><a xlink:title="BatchNorm2d {&#39;num_features&#39;: 64, &#39;eps&#39;: 1e&#45;05, &#39;momentum&#39;: 0.1, &#39;affine&#39;: True, &#39;track_running_stats&#39;: True}">
<path fill="#ffffb3" stroke="black" d="M222,-96C222,-96 192,-96 192,-96 186,-96 180,-90 180,-84 180,-84 180,-72 180,-72 180,-66 186,-60 192,-60 192,-60 222,-60 222,-60 228,-60 234,-66 234,-72 234,-72 234,-84 234,-84 234,-90 228,-96 222,-96"/>
<text text-anchor="middle" x="207" y="-73.8" font-family="Times,serif" font-size="14.00">bn</text>
</a>
</g>
</g>
<!-- prep_conv&#45;&gt;prep_bn -->
<g id="edge2" class="edge"><title>prep_conv&#45;&gt;prep_bn</title>
<path fill="none" stroke="black" d="M144.403,-78C152.393,-78 161.311,-78 169.824,-78"/>
<polygon fill="black" stroke="black" points="169.919,-81.5001 179.919,-78 169.919,-74.5001 169.919,-81.5001"/>
</g>
<!-- prep_relu -->
<g id="node3" class="node"><title>prep_relu</title>
<g id="a_node3"><a xlink:title="ReLU {&#39;inplace&#39;: True}">
<path fill="#fb8072" stroke="black" d="M312,-96C312,-96 282,-96 282,-96 276,-96 270,-90 270,-84 270,-84 270,-72 270,-72 270,-66 276,-60 282,-60 282,-60 312,-60 312,-60 318,-60 324,-66 324,-72 324,-72 324,-84 324,-84 324,-90 318,-96 312,-96"/>
<text text-anchor="middle" x="297" y="-73.8" font-family="Times,serif" font-size="14.00">relu</text>
</a>
</g>
</g>
<!-- prep_bn&#45;&gt;prep_relu -->
<g id="edge3" class="edge"><title>prep_bn&#45;&gt;prep_relu</title>
<path fill="none" stroke="black" d="M234.403,-78C242.393,-78 251.311,-78 259.824,-78"/>
<polygon fill="black" stroke="black" points="259.919,-81.5001 269.919,-78 259.919,-74.5001 259.919,-81.5001"/>
</g>
<!-- layer1_conv -->
<g id="node4" class="node"><title>layer1_conv</title>
<g id="a_node4"><a xlink:title="Conv2d {&#39;in_channels&#39;: 64, &#39;out_channels&#39;: 128, &#39;kernel_size&#39;: (3, 3), &#39;stride&#39;: (1, 1), &#39;padding&#39;: (1, 1), &#39;dilation&#39;: (1, 1), &#39;groups&#39;: 1, &#39;bias&#39;: None}">
<path fill="#bebada" stroke="black" d="M402,-96C402,-96 372,-96 372,-96 366,-96 360,-90 360,-84 360,-84 360,-72 360,-72 360,-66 366,-60 372,-60 372,-60 402,-60 402,-60 408,-60 414,-66 414,-72 414,-72 414,-84 414,-84 414,-90 408,-96 402,-96"/>
<text text-anchor="middle" x="387" y="-73.8" font-family="Times,serif" font-size="14.00">conv</text>
</a>
</g>
</g>
<!-- prep_relu&#45;&gt;layer1_conv -->
<g id="edge4" class="edge"><title>prep_relu&#45;&gt;layer1_conv</title>
<path fill="none" stroke="black" d="M324.403,-78C332.393,-78 341.311,-78 349.824,-78"/>
<polygon fill="black" stroke="black" points="349.919,-81.5001 359.919,-78 349.919,-74.5001 349.919,-81.5001"/>
</g>
<!-- layer1_bn -->
<g id="node5" class="node"><title>layer1_bn</title>
<g id="a_node5"><a xlink:title="BatchNorm2d {&#39;num_features&#39;: 128, &#39;eps&#39;: 1e&#45;05, &#39;momentum&#39;: 0.1, &#39;affine&#39;: True, &#39;track_running_stats&#39;: True}">
<path fill="#ffffb3" stroke="black" d="M492,-96C492,-96 462,-96 462,-96 456,-96 450,-90 450,-84 450,-84 450,-72 450,-72 450,-66 456,-60 462,-60 462,-60 492,-60 492,-60 498,-60 504,-66 504,-72 504,-72 504,-84 504,-84 504,-90 498,-96 492,-96"/>
<text text-anchor="middle" x="477" y="-73.8" font-family="Times,serif" font-size="14.00">bn</text>
</a>
</g>
</g>
<!-- layer1_conv&#45;&gt;layer1_bn -->
<g id="edge5" class="edge"><title>layer1_conv&#45;&gt;layer1_bn</title>
<path fill="none" stroke="black" d="M414.403,-78C422.393,-78 431.311,-78 439.824,-78"/>
<polygon fill="black" stroke="black" points="439.919,-81.5001 449.919,-78 439.919,-74.5001 439.919,-81.5001"/>
</g>
<!-- layer1_relu -->
<g id="node6" class="node"><title>layer1_relu</title>
<g id="a_node6"><a xlink:title="ReLU {&#39;inplace&#39;: True}">
<path fill="#fb8072" stroke="black" d="M582,-96C582,-96 552,-96 552,-96 546,-96 540,-90 540,-84 540,-84 540,-72 540,-72 540,-66 546,-60 552,-60 552,-60 582,-60 582,-60 588,-60 594,-66 594,-72 594,-72 594,-84 594,-84 594,-90 588,-96 582,-96"/>
<text text-anchor="middle" x="567" y="-73.8" font-family="Times,serif" font-size="14.00">relu</text>
</a>
</g>
</g>
<!-- layer1_bn&#45;&gt;layer1_relu -->
<g id="edge6" class="edge"><title>layer1_bn&#45;&gt;layer1_relu</title>
<path fill="none" stroke="black" d="M504.403,-78C512.393,-78 521.311,-78 529.824,-78"/>
<polygon fill="black" stroke="black" points="529.919,-81.5001 539.919,-78 529.919,-74.5001 529.919,-81.5001"/>
</g>
<!-- layer1_pool -->
<g id="node7" class="node"><title>layer1_pool</title>
<g id="a_node7"><a xlink:title="MaxPool2d {&#39;kernel_size&#39;: 2, &#39;stride&#39;: 2, &#39;padding&#39;: 0, &#39;dilation&#39;: 1, &#39;return_indices&#39;: False, &#39;ceil_mode&#39;: False}">
<path fill="#8dd3c7" stroke="black" d="M672,-96C672,-96 642,-96 642,-96 636,-96 630,-90 630,-84 630,-84 630,-72 630,-72 630,-66 636,-60 642,-60 642,-60 672,-60 672,-60 678,-60 684,-66 684,-72 684,-72 684,-84 684,-84 684,-90 678,-96 672,-96"/>
<text text-anchor="middle" x="657" y="-73.8" font-family="Times,serif" font-size="14.00">pool</text>
</a>
</g>
</g>
<!-- layer1_relu&#45;&gt;layer1_pool -->
<g id="edge7" class="edge"><title>layer1_relu&#45;&gt;layer1_pool</title>
<path fill="none" stroke="black" d="M594.403,-78C602.393,-78 611.311,-78 619.824,-78"/>
<polygon fill="black" stroke="black" points="619.919,-81.5001 629.919,-78 619.919,-74.5001 619.919,-81.5001"/>
</g>
<!-- layer1_residual_res1_conv -->
<g id="node8" class="node"><title>layer1_residual_res1_conv</title>
<g id="a_node8"><a xlink:title="Conv2d {&#39;in_channels&#39;: 128, &#39;out_channels&#39;: 128, &#39;kernel_size&#39;: (3, 3), &#39;stride&#39;: (1, 1), &#39;padding&#39;: (1, 1), &#39;dilation&#39;: (1, 1), &#39;groups&#39;: 1, &#39;bias&#39;: None}">
<path fill="#bebada" stroke="black" d="M762,-68C762,-68 732,-68 732,-68 726,-68 720,-62 720,-56 720,-56 720,-44 720,-44 720,-38 726,-32 732,-32 732,-32 762,-32 762,-32 768,-32 774,-38 774,-44 774,-44 774,-56 774,-56 774,-62 768,-68 762,-68"/>
<text text-anchor="middle" x="747" y="-45.8" font-family="Times,serif" font-size="14.00">conv</text>
</a>
</g>
</g>
<!-- layer1_pool&#45;&gt;layer1_residual_res1_conv -->
<g id="edge8" class="edge"><title>layer1_pool&#45;&gt;layer1_residual_res1_conv</title>
<path fill="none" stroke="black" d="M684.403,-69.5991C692.569,-67.0008 701.703,-64.0945 710.385,-61.3321"/>
<polygon fill="black" stroke="black" points="711.451,-64.6659 719.919,-58.2985 709.328,-57.9954 711.451,-64.6659"/>
</g>
<!-- layer1_residual_add -->
<g id="node14" class="node"><title>layer1_residual_add</title>
<g id="a_node14"><a xlink:title="Add {}">
<path fill="#fdb462" stroke="black" d="M1302,-83C1302,-83 1272,-83 1272,-83 1266,-83 1260,-77 1260,-71 1260,-71 1260,-59 1260,-59 1260,-53 1266,-47 1272,-47 1272,-47 1302,-47 1302,-47 1308,-47 1314,-53 1314,-59 1314,-59 1314,-71 1314,-71 1314,-77 1308,-83 1302,-83"/>
<text text-anchor="middle" x="1287" y="-60.8" font-family="Times,serif" font-size="14.00">add</text>
</a>
</g>
</g>
<!-- layer1_pool&#45;&gt;layer1_residual_add -->
<g id="edge14" class="edge"><title>layer1_pool&#45;&gt;layer1_residual_add</title>
<path fill="none" stroke="black" d="M684.431,-94.3061C690.641,-97.4157 697.383,-100.244 704,-102 760.745,-117.057 777.291,-107 836,-107 836,-107 836,-107 1108,-107 1163.16,-107 1179.65,-119.377 1232,-102 1240.68,-99.1178 1249.24,-94.3896 1256.9,-89.2614"/>
<polygon fill="black" stroke="black" points="1259.34,-91.8169 1265.43,-83.1443 1255.26,-86.1288 1259.34,-91.8169"/>
</g>
<!-- layer1_residual_res1_bn -->
<g id="node9" class="node"><title>layer1_residual_res1_bn</title>
<g id="a_node9"><a xlink:title="BatchNorm2d {&#39;num_features&#39;: 128, &#39;eps&#39;: 1e&#45;05, &#39;momentum&#39;: 0.1, &#39;affine&#39;: True, &#39;track_running_stats&#39;: True}">
<path fill="#ffffb3" stroke="black" d="M852,-68C852,-68 822,-68 822,-68 816,-68 810,-62 810,-56 810,-56 810,-44 810,-44 810,-38 816,-32 822,-32 822,-32 852,-32 852,-32 858,-32 864,-38 864,-44 864,-44 864,-56 864,-56 864,-62 858,-68 852,-68"/>
<text text-anchor="middle" x="837" y="-45.8" font-family="Times,serif" font-size="14.00">bn</text>
</a>
</g>
</g>
<!-- layer1_residual_res1_conv&#45;&gt;layer1_residual_res1_bn -->
<g id="edge9" class="edge"><title>layer1_residual_res1_conv&#45;&gt;layer1_residual_res1_bn</title>
<path fill="none" stroke="black" d="M774.403,-50C782.393,-50 791.311,-50 799.824,-50"/>
<polygon fill="black" stroke="black" points="799.919,-53.5001 809.919,-50 799.919,-46.5001 799.919,-53.5001"/>
</g>
<!-- layer1_residual_res1_relu -->
<g id="node10" class="node"><title>layer1_residual_res1_relu</title>
<g id="a_node10"><a xlink:title="ReLU {&#39;inplace&#39;: True}">
<path fill="#fb8072" stroke="black" d="M942,-68C942,-68 912,-68 912,-68 906,-68 900,-62 900,-56 900,-56 900,-44 900,-44 900,-38 906,-32 912,-32 912,-32 942,-32 942,-32 948,-32 954,-38 954,-44 954,-44 954,-56 954,-56 954,-62 948,-68 942,-68"/>
<text text-anchor="middle" x="927" y="-45.8" font-family="Times,serif" font-size="14.00">relu</text>
</a>
</g>
</g>
<!-- layer1_residual_res1_bn&#45;&gt;layer1_residual_res1_relu -->
<g id="edge10" class="edge"><title>layer1_residual_res1_bn&#45;&gt;layer1_residual_res1_relu</title>
<path fill="none" stroke="black" d="M864.403,-50C872.393,-50 881.311,-50 889.824,-50"/>
<polygon fill="black" stroke="black" points="889.919,-53.5001 899.919,-50 889.919,-46.5001 889.919,-53.5001"/>
</g>
<!-- layer1_residual_res2_conv -->
<g id="node11" class="node"><title>layer1_residual_res2_conv</title>
<g id="a_node11"><a xlink:title="Conv2d {&#39;in_channels&#39;: 128, &#39;out_channels&#39;: 128, &#39;kernel_size&#39;: (3, 3), &#39;stride&#39;: (1, 1), &#39;padding&#39;: (1, 1), &#39;dilation&#39;: (1, 1), &#39;groups&#39;: 1, &#39;bias&#39;: None}">
<path fill="#bebada" stroke="black" d="M1032,-68C1032,-68 1002,-68 1002,-68 996,-68 990,-62 990,-56 990,-56 990,-44 990,-44 990,-38 996,-32 1002,-32 1002,-32 1032,-32 1032,-32 1038,-32 1044,-38 1044,-44 1044,-44 1044,-56 1044,-56 1044,-62 1038,-68 1032,-68"/>
<text text-anchor="middle" x="1017" y="-45.8" font-family="Times,serif" font-size="14.00">conv</text>
</a>
</g>
</g>
<!-- layer1_residual_res1_relu&#45;&gt;layer1_residual_res2_conv -->
<g id="edge11" class="edge"><title>layer1_residual_res1_relu&#45;&gt;layer1_residual_res2_conv</title>
<path fill="none" stroke="black" d="M954.403,-50C962.393,-50 971.311,-50 979.824,-50"/>
<polygon fill="black" stroke="black" points="979.919,-53.5001 989.919,-50 979.919,-46.5001 979.919,-53.5001"/>
</g>
<!-- layer1_residual_res2_bn -->
<g id="node12" class="node"><title>layer1_residual_res2_bn</title>
<g id="a_node12"><a xlink:title="BatchNorm2d {&#39;num_features&#39;: 128, &#39;eps&#39;: 1e&#45;05, &#39;momentum&#39;: 0.1, &#39;affine&#39;: True, &#39;track_running_stats&#39;: True}">
<path fill="#ffffb3" stroke="black" d="M1122,-68C1122,-68 1092,-68 1092,-68 1086,-68 1080,-62 1080,-56 1080,-56 1080,-44 1080,-44 1080,-38 1086,-32 1092,-32 1092,-32 1122,-32 1122,-32 1128,-32 1134,-38 1134,-44 1134,-44 1134,-56 1134,-56 1134,-62 1128,-68 1122,-68"/>
<text text-anchor="middle" x="1107" y="-45.8" font-family="Times,serif" font-size="14.00">bn</text>
</a>
</g>
</g>
<!-- layer1_residual_res2_conv&#45;&gt;layer1_residual_res2_bn -->
<g id="edge12" class="edge"><title>layer1_residual_res2_conv&#45;&gt;layer1_residual_res2_bn</title>
<path fill="none" stroke="black" d="M1044.4,-50C1052.39,-50 1061.31,-50 1069.82,-50"/>
<polygon fill="black" stroke="black" points="1069.92,-53.5001 1079.92,-50 1069.92,-46.5001 1069.92,-53.5001"/>
</g>
<!-- layer1_residual_res2_relu -->
<g id="node13" class="node"><title>layer1_residual_res2_relu</title>
<g id="a_node13"><a xlink:title="ReLU {&#39;inplace&#39;: True}">
<path fill="#fb8072" stroke="black" d="M1212,-68C1212,-68 1182,-68 1182,-68 1176,-68 1170,-62 1170,-56 1170,-56 1170,-44 1170,-44 1170,-38 1176,-32 1182,-32 1182,-32 1212,-32 1212,-32 1218,-32 1224,-38 1224,-44 1224,-44 1224,-56 1224,-56 1224,-62 1218,-68 1212,-68"/>
<text text-anchor="middle" x="1197" y="-45.8" font-family="Times,serif" font-size="14.00">relu</text>
</a>
</g>
</g>
<!-- layer1_residual_res2_bn&#45;&gt;layer1_residual_res2_relu -->
<g id="edge13" class="edge"><title>layer1_residual_res2_bn&#45;&gt;layer1_residual_res2_relu</title>
<path fill="none" stroke="black" d="M1134.4,-50C1142.39,-50 1151.31,-50 1159.82,-50"/>
<polygon fill="black" stroke="black" points="1159.92,-53.5001 1169.92,-50 1159.92,-46.5001 1159.92,-53.5001"/>
</g>
<!-- layer1_residual_res2_relu&#45;&gt;layer1_residual_add -->
<g id="edge15" class="edge"><title>layer1_residual_res2_relu&#45;&gt;layer1_residual_add</title>
<path fill="none" stroke="black" d="M1224.4,-54.5005C1232.39,-55.8625 1241.31,-57.3825 1249.82,-58.8336"/>
<polygon fill="black" stroke="black" points="1249.47,-62.3242 1259.92,-60.5544 1250.65,-55.4237 1249.47,-62.3242"/>
</g>
<!-- layer2_conv -->
<g id="node15" class="node"><title>layer2_conv</title>
<g id="a_node15"><a xlink:title="Conv2d {&#39;in_channels&#39;: 128, &#39;out_channels&#39;: 256, &#39;kernel_size&#39;: (3, 3), &#39;stride&#39;: (1, 1), &#39;padding&#39;: (1, 1), &#39;dilation&#39;: (1, 1), &#39;groups&#39;: 1, &#39;bias&#39;: None}">
<path fill="#bebada" stroke="black" d="M1392,-83C1392,-83 1362,-83 1362,-83 1356,-83 1350,-77 1350,-71 1350,-71 1350,-59 1350,-59 1350,-53 1356,-47 1362,-47 1362,-47 1392,-47 1392,-47 1398,-47 1404,-53 1404,-59 1404,-59 1404,-71 1404,-71 1404,-77 1398,-83 1392,-83"/>
<text text-anchor="middle" x="1377" y="-60.8" font-family="Times,serif" font-size="14.00">conv</text>
</a>
</g>
</g>
<!-- layer1_residual_add&#45;&gt;layer2_conv -->
<g id="edge16" class="edge"><title>layer1_residual_add&#45;&gt;layer2_conv</title>
<path fill="none" stroke="black" d="M1314.4,-65C1322.39,-65 1331.31,-65 1339.82,-65"/>
<polygon fill="black" stroke="black" points="1339.92,-68.5001 1349.92,-65 1339.92,-61.5001 1339.92,-68.5001"/>
</g>
<!-- layer2_bn -->
<g id="node16" class="node"><title>layer2_bn</title>
<g id="a_node16"><a xlink:title="BatchNorm2d {&#39;num_features&#39;: 256, &#39;eps&#39;: 1e&#45;05, &#39;momentum&#39;: 0.1, &#39;affine&#39;: True, &#39;track_running_stats&#39;: True}">
<path fill="#ffffb3" stroke="black" d="M1482,-83C1482,-83 1452,-83 1452,-83 1446,-83 1440,-77 1440,-71 1440,-71 1440,-59 1440,-59 1440,-53 1446,-47 1452,-47 1452,-47 1482,-47 1482,-47 1488,-47 1494,-53 1494,-59 1494,-59 1494,-71 1494,-71 1494,-77 1488,-83 1482,-83"/>
<text text-anchor="middle" x="1467" y="-60.8" font-family="Times,serif" font-size="14.00">bn</text>
</a>
</g>
</g>
<!-- layer2_conv&#45;&gt;layer2_bn -->
<g id="edge17" class="edge"><title>layer2_conv&#45;&gt;layer2_bn</title>
<path fill="none" stroke="black" d="M1404.4,-65C1412.39,-65 1421.31,-65 1429.82,-65"/>
<polygon fill="black" stroke="black" points="1429.92,-68.5001 1439.92,-65 1429.92,-61.5001 1429.92,-68.5001"/>
</g>
<!-- layer2_relu -->
<g id="node17" class="node"><title>layer2_relu</title>
<g id="a_node17"><a xlink:title="ReLU {&#39;inplace&#39;: True}">
<path fill="#fb8072" stroke="black" d="M1572,-83C1572,-83 1542,-83 1542,-83 1536,-83 1530,-77 1530,-71 1530,-71 1530,-59 1530,-59 1530,-53 1536,-47 1542,-47 1542,-47 1572,-47 1572,-47 1578,-47 1584,-53 1584,-59 1584,-59 1584,-71 1584,-71 1584,-77 1578,-83 1572,-83"/>
<text text-anchor="middle" x="1557" y="-60.8" font-family="Times,serif" font-size="14.00">relu</text>
</a>
</g>
</g>
<!-- layer2_bn&#45;&gt;layer2_relu -->
<g id="edge18" class="edge"><title>layer2_bn&#45;&gt;layer2_relu</title>
<path fill="none" stroke="black" d="M1494.4,-65C1502.39,-65 1511.31,-65 1519.82,-65"/>
<polygon fill="black" stroke="black" points="1519.92,-68.5001 1529.92,-65 1519.92,-61.5001 1519.92,-68.5001"/>
</g>
<!-- layer2_pool -->
<g id="node18" class="node"><title>layer2_pool</title>
<g id="a_node18"><a xlink:title="MaxPool2d {&#39;kernel_size&#39;: 2, &#39;stride&#39;: 2, &#39;padding&#39;: 0, &#39;dilation&#39;: 1, &#39;return_indices&#39;: False, &#39;ceil_mode&#39;: False}">
<path fill="#8dd3c7" stroke="black" d="M1662,-83C1662,-83 1632,-83 1632,-83 1626,-83 1620,-77 1620,-71 1620,-71 1620,-59 1620,-59 1620,-53 1626,-47 1632,-47 1632,-47 1662,-47 1662,-47 1668,-47 1674,-53 1674,-59 1674,-59 1674,-71 1674,-71 1674,-77 1668,-83 1662,-83"/>
<text text-anchor="middle" x="1647" y="-60.8" font-family="Times,serif" font-size="14.00">pool</text>
</a>
</g>
</g>
<!-- layer2_relu&#45;&gt;layer2_pool -->
<g id="edge19" class="edge"><title>layer2_relu&#45;&gt;layer2_pool</title>
<path fill="none" stroke="black" d="M1584.4,-65C1592.39,-65 1601.31,-65 1609.82,-65"/>
<polygon fill="black" stroke="black" points="1609.92,-68.5001 1619.92,-65 1609.92,-61.5001 1609.92,-68.5001"/>
</g>
<!-- layer3_conv -->
<g id="node19" class="node"><title>layer3_conv</title>
<g id="a_node19"><a xlink:title="Conv2d {&#39;in_channels&#39;: 256, &#39;out_channels&#39;: 512, &#39;kernel_size&#39;: (3, 3), &#39;stride&#39;: (1, 1), &#39;padding&#39;: (1, 1), &#39;dilation&#39;: (1, 1), &#39;groups&#39;: 1, &#39;bias&#39;: None}">
<path fill="#bebada" stroke="black" d="M1752,-83C1752,-83 1722,-83 1722,-83 1716,-83 1710,-77 1710,-71 1710,-71 1710,-59 1710,-59 1710,-53 1716,-47 1722,-47 1722,-47 1752,-47 1752,-47 1758,-47 1764,-53 1764,-59 1764,-59 1764,-71 1764,-71 1764,-77 1758,-83 1752,-83"/>
<text text-anchor="middle" x="1737" y="-60.8" font-family="Times,serif" font-size="14.00">conv</text>
</a>
</g>
</g>
<!-- layer2_pool&#45;&gt;layer3_conv -->
<g id="edge20" class="edge"><title>layer2_pool&#45;&gt;layer3_conv</title>
<path fill="none" stroke="black" d="M1674.4,-65C1682.39,-65 1691.31,-65 1699.82,-65"/>
<polygon fill="black" stroke="black" points="1699.92,-68.5001 1709.92,-65 1699.92,-61.5001 1699.92,-68.5001"/>
</g>
<!-- layer3_bn -->
<g id="node20" class="node"><title>layer3_bn</title>
<g id="a_node20"><a xlink:title="BatchNorm2d {&#39;num_features&#39;: 512, &#39;eps&#39;: 1e&#45;05, &#39;momentum&#39;: 0.1, &#39;affine&#39;: True, &#39;track_running_stats&#39;: True}">
<path fill="#ffffb3" stroke="black" d="M1842,-83C1842,-83 1812,-83 1812,-83 1806,-83 1800,-77 1800,-71 1800,-71 1800,-59 1800,-59 1800,-53 1806,-47 1812,-47 1812,-47 1842,-47 1842,-47 1848,-47 1854,-53 1854,-59 1854,-59 1854,-71 1854,-71 1854,-77 1848,-83 1842,-83"/>
<text text-anchor="middle" x="1827" y="-60.8" font-family="Times,serif" font-size="14.00">bn</text>
</a>
</g>
</g>
<!-- layer3_conv&#45;&gt;layer3_bn -->
<g id="edge21" class="edge"><title>layer3_conv&#45;&gt;layer3_bn</title>
<path fill="none" stroke="black" d="M1764.4,-65C1772.39,-65 1781.31,-65 1789.82,-65"/>
<polygon fill="black" stroke="black" points="1789.92,-68.5001 1799.92,-65 1789.92,-61.5001 1789.92,-68.5001"/>
</g>
<!-- layer3_relu -->
<g id="node21" class="node"><title>layer3_relu</title>
<g id="a_node21"><a xlink:title="ReLU {&#39;inplace&#39;: True}">
<path fill="#fb8072" stroke="black" d="M1932,-83C1932,-83 1902,-83 1902,-83 1896,-83 1890,-77 1890,-71 1890,-71 1890,-59 1890,-59 1890,-53 1896,-47 1902,-47 1902,-47 1932,-47 1932,-47 1938,-47 1944,-53 1944,-59 1944,-59 1944,-71 1944,-71 1944,-77 1938,-83 1932,-83"/>
<text text-anchor="middle" x="1917" y="-60.8" font-family="Times,serif" font-size="14.00">relu</text>
</a>
</g>
</g>
<!-- layer3_bn&#45;&gt;layer3_relu -->
<g id="edge22" class="edge"><title>layer3_bn&#45;&gt;layer3_relu</title>
<path fill="none" stroke="black" d="M1854.4,-65C1862.39,-65 1871.31,-65 1879.82,-65"/>
<polygon fill="black" stroke="black" points="1879.92,-68.5001 1889.92,-65 1879.92,-61.5001 1879.92,-68.5001"/>
</g>
<!-- layer3_pool -->
<g id="node22" class="node"><title>layer3_pool</title>
<g id="a_node22"><a xlink:title="MaxPool2d {&#39;kernel_size&#39;: 2, &#39;stride&#39;: 2, &#39;padding&#39;: 0, &#39;dilation&#39;: 1, &#39;return_indices&#39;: False, &#39;ceil_mode&#39;: False}">
<path fill="#8dd3c7" stroke="black" d="M2022,-83C2022,-83 1992,-83 1992,-83 1986,-83 1980,-77 1980,-71 1980,-71 1980,-59 1980,-59 1980,-53 1986,-47 1992,-47 1992,-47 2022,-47 2022,-47 2028,-47 2034,-53 2034,-59 2034,-59 2034,-71 2034,-71 2034,-77 2028,-83 2022,-83"/>
<text text-anchor="middle" x="2007" y="-60.8" font-family="Times,serif" font-size="14.00">pool</text>
</a>
</g>
</g>
<!-- layer3_relu&#45;&gt;layer3_pool -->
<g id="edge23" class="edge"><title>layer3_relu&#45;&gt;layer3_pool</title>
<path fill="none" stroke="black" d="M1944.4,-65C1952.39,-65 1961.31,-65 1969.82,-65"/>
<polygon fill="black" stroke="black" points="1969.92,-68.5001 1979.92,-65 1969.92,-61.5001 1969.92,-68.5001"/>
</g>
<!-- layer3_residual_res1_conv -->
<g id="node23" class="node"><title>layer3_residual_res1_conv</title>
<g id="a_node23"><a xlink:title="Conv2d {&#39;in_channels&#39;: 512, &#39;out_channels&#39;: 512, &#39;kernel_size&#39;: (3, 3), &#39;stride&#39;: (1, 1), &#39;padding&#39;: (1, 1), &#39;dilation&#39;: (1, 1), &#39;groups&#39;: 1, &#39;bias&#39;: None}">
<path fill="#bebada" stroke="black" d="M2112,-68C2112,-68 2082,-68 2082,-68 2076,-68 2070,-62 2070,-56 2070,-56 2070,-44 2070,-44 2070,-38 2076,-32 2082,-32 2082,-32 2112,-32 2112,-32 2118,-32 2124,-38 2124,-44 2124,-44 2124,-56 2124,-56 2124,-62 2118,-68 2112,-68"/>
<text text-anchor="middle" x="2097" y="-45.8" font-family="Times,serif" font-size="14.00">conv</text>
</a>
</g>
</g>
<!-- layer3_pool&#45;&gt;layer3_residual_res1_conv -->
<g id="edge24" class="edge"><title>layer3_pool&#45;&gt;layer3_residual_res1_conv</title>
<path fill="none" stroke="black" d="M2034.4,-60.4995C2042.39,-59.1375 2051.31,-57.6175 2059.82,-56.1664"/>
<polygon fill="black" stroke="black" points="2060.65,-59.5763 2069.92,-54.4456 2059.47,-52.6758 2060.65,-59.5763"/>
</g>
<!-- layer3_residual_add -->
<g id="node29" class="node"><title>layer3_residual_add</title>
<g id="a_node29"><a xlink:title="Add {}">
<path fill="#fdb462" stroke="black" d="M2652,-83C2652,-83 2622,-83 2622,-83 2616,-83 2610,-77 2610,-71 2610,-71 2610,-59 2610,-59 2610,-53 2616,-47 2622,-47 2622,-47 2652,-47 2652,-47 2658,-47 2664,-53 2664,-59 2664,-59 2664,-71 2664,-71 2664,-77 2658,-83 2652,-83"/>
<text text-anchor="middle" x="2637" y="-60.8" font-family="Times,serif" font-size="14.00">add</text>
</a>
</g>
</g>
<!-- layer3_pool&#45;&gt;layer3_residual_add -->
<g id="edge30" class="edge"><title>layer3_pool&#45;&gt;layer3_residual_add</title>
<path fill="none" stroke="black" d="M2025.08,-83.1366C2033.1,-90.3976 2043.25,-97.9819 2054,-102 2108.99,-122.551 2127.29,-107 2186,-107 2186,-107 2186,-107 2458,-107 2513.16,-107 2529.65,-119.377 2582,-102 2590.68,-99.1178 2599.24,-94.3896 2606.9,-89.2614"/>
<polygon fill="black" stroke="black" points="2609.34,-91.8169 2615.43,-83.1443 2605.26,-86.1288 2609.34,-91.8169"/>
</g>
<!-- layer3_residual_res1_bn -->
<g id="node24" class="node"><title>layer3_residual_res1_bn</title>
<g id="a_node24"><a xlink:title="BatchNorm2d {&#39;num_features&#39;: 512, &#39;eps&#39;: 1e&#45;05, &#39;momentum&#39;: 0.1, &#39;affine&#39;: True, &#39;track_running_stats&#39;: True}">
<path fill="#ffffb3" stroke="black" d="M2202,-68C2202,-68 2172,-68 2172,-68 2166,-68 2160,-62 2160,-56 2160,-56 2160,-44 2160,-44 2160,-38 2166,-32 2172,-32 2172,-32 2202,-32 2202,-32 2208,-32 2214,-38 2214,-44 2214,-44 2214,-56 2214,-56 2214,-62 2208,-68 2202,-68"/>
<text text-anchor="middle" x="2187" y="-45.8" font-family="Times,serif" font-size="14.00">bn</text>
</a>
</g>
</g>
<!-- layer3_residual_res1_conv&#45;&gt;layer3_residual_res1_bn -->
<g id="edge25" class="edge"><title>layer3_residual_res1_conv&#45;&gt;layer3_residual_res1_bn</title>
<path fill="none" stroke="black" d="M2124.4,-50C2132.39,-50 2141.31,-50 2149.82,-50"/>
<polygon fill="black" stroke="black" points="2149.92,-53.5001 2159.92,-50 2149.92,-46.5001 2149.92,-53.5001"/>
</g>
<!-- layer3_residual_res1_relu -->
<g id="node25" class="node"><title>layer3_residual_res1_relu</title>
<g id="a_node25"><a xlink:title="ReLU {&#39;inplace&#39;: True}">
<path fill="#fb8072" stroke="black" d="M2292,-68C2292,-68 2262,-68 2262,-68 2256,-68 2250,-62 2250,-56 2250,-56 2250,-44 2250,-44 2250,-38 2256,-32 2262,-32 2262,-32 2292,-32 2292,-32 2298,-32 2304,-38 2304,-44 2304,-44 2304,-56 2304,-56 2304,-62 2298,-68 2292,-68"/>
<text text-anchor="middle" x="2277" y="-45.8" font-family="Times,serif" font-size="14.00">relu</text>
</a>
</g>
</g>
<!-- layer3_residual_res1_bn&#45;&gt;layer3_residual_res1_relu -->
<g id="edge26" class="edge"><title>layer3_residual_res1_bn&#45;&gt;layer3_residual_res1_relu</title>
<path fill="none" stroke="black" d="M2214.4,-50C2222.39,-50 2231.31,-50 2239.82,-50"/>
<polygon fill="black" stroke="black" points="2239.92,-53.5001 2249.92,-50 2239.92,-46.5001 2239.92,-53.5001"/>
</g>
<!-- layer3_residual_res2_conv -->
<g id="node26" class="node"><title>layer3_residual_res2_conv</title>
<g id="a_node26"><a xlink:title="Conv2d {&#39;in_channels&#39;: 512, &#39;out_channels&#39;: 512, &#39;kernel_size&#39;: (3, 3), &#39;stride&#39;: (1, 1), &#39;padding&#39;: (1, 1), &#39;dilation&#39;: (1, 1), &#39;groups&#39;: 1, &#39;bias&#39;: None}">
<path fill="#bebada" stroke="black" d="M2382,-68C2382,-68 2352,-68 2352,-68 2346,-68 2340,-62 2340,-56 2340,-56 2340,-44 2340,-44 2340,-38 2346,-32 2352,-32 2352,-32 2382,-32 2382,-32 2388,-32 2394,-38 2394,-44 2394,-44 2394,-56 2394,-56 2394,-62 2388,-68 2382,-68"/>
<text text-anchor="middle" x="2367" y="-45.8" font-family="Times,serif" font-size="14.00">conv</text>
</a>
</g>
</g>
<!-- layer3_residual_res1_relu&#45;&gt;layer3_residual_res2_conv -->
<g id="edge27" class="edge"><title>layer3_residual_res1_relu&#45;&gt;layer3_residual_res2_conv</title>
<path fill="none" stroke="black" d="M2304.4,-50C2312.39,-50 2321.31,-50 2329.82,-50"/>
<polygon fill="black" stroke="black" points="2329.92,-53.5001 2339.92,-50 2329.92,-46.5001 2329.92,-53.5001"/>
</g>
<!-- layer3_residual_res2_bn -->
<g id="node27" class="node"><title>layer3_residual_res2_bn</title>
<g id="a_node27"><a xlink:title="BatchNorm2d {&#39;num_features&#39;: 512, &#39;eps&#39;: 1e&#45;05, &#39;momentum&#39;: 0.1, &#39;affine&#39;: True, &#39;track_running_stats&#39;: True}">
<path fill="#ffffb3" stroke="black" d="M2472,-68C2472,-68 2442,-68 2442,-68 2436,-68 2430,-62 2430,-56 2430,-56 2430,-44 2430,-44 2430,-38 2436,-32 2442,-32 2442,-32 2472,-32 2472,-32 2478,-32 2484,-38 2484,-44 2484,-44 2484,-56 2484,-56 2484,-62 2478,-68 2472,-68"/>
<text text-anchor="middle" x="2457" y="-45.8" font-family="Times,serif" font-size="14.00">bn</text>
</a>
</g>
</g>
<!-- layer3_residual_res2_conv&#45;&gt;layer3_residual_res2_bn -->
<g id="edge28" class="edge"><title>layer3_residual_res2_conv&#45;&gt;layer3_residual_res2_bn</title>
<path fill="none" stroke="black" d="M2394.4,-50C2402.39,-50 2411.31,-50 2419.82,-50"/>
<polygon fill="black" stroke="black" points="2419.92,-53.5001 2429.92,-50 2419.92,-46.5001 2419.92,-53.5001"/>
</g>
<!-- layer3_residual_res2_relu -->
<g id="node28" class="node"><title>layer3_residual_res2_relu</title>
<g id="a_node28"><a xlink:title="ReLU {&#39;inplace&#39;: True}">
<path fill="#fb8072" stroke="black" d="M2562,-68C2562,-68 2532,-68 2532,-68 2526,-68 2520,-62 2520,-56 2520,-56 2520,-44 2520,-44 2520,-38 2526,-32 2532,-32 2532,-32 2562,-32 2562,-32 2568,-32 2574,-38 2574,-44 2574,-44 2574,-56 2574,-56 2574,-62 2568,-68 2562,-68"/>
<text text-anchor="middle" x="2547" y="-45.8" font-family="Times,serif" font-size="14.00">relu</text>
</a>
</g>
</g>
<!-- layer3_residual_res2_bn&#45;&gt;layer3_residual_res2_relu -->
<g id="edge29" class="edge"><title>layer3_residual_res2_bn&#45;&gt;layer3_residual_res2_relu</title>
<path fill="none" stroke="black" d="M2484.4,-50C2492.39,-50 2501.31,-50 2509.82,-50"/>
<polygon fill="black" stroke="black" points="2509.92,-53.5001 2519.92,-50 2509.92,-46.5001 2509.92,-53.5001"/>
</g>
<!-- layer3_residual_res2_relu&#45;&gt;layer3_residual_add -->
<g id="edge31" class="edge"><title>layer3_residual_res2_relu&#45;&gt;layer3_residual_add</title>
<path fill="none" stroke="black" d="M2574.4,-54.5005C2582.39,-55.8625 2591.31,-57.3825 2599.82,-58.8336"/>
<polygon fill="black" stroke="black" points="2599.47,-62.3242 2609.92,-60.5544 2600.65,-55.4237 2599.47,-62.3242"/>
</g>
<!-- classifier_pool -->
<g id="node30" class="node"><title>classifier_pool</title>
<g id="a_node30"><a xlink:title="AdaptiveMaxPool2d {&#39;output_size&#39;: 1, &#39;return_indices&#39;: False}">
<path fill="#b3de69" stroke="black" d="M2742,-83C2742,-83 2712,-83 2712,-83 2706,-83 2700,-77 2700,-71 2700,-71 2700,-59 2700,-59 2700,-53 2706,-47 2712,-47 2712,-47 2742,-47 2742,-47 2748,-47 2754,-53 2754,-59 2754,-59 2754,-71 2754,-71 2754,-77 2748,-83 2742,-83"/>
<text text-anchor="middle" x="2727" y="-60.8" font-family="Times,serif" font-size="14.00">pool</text>
</a>
</g>
</g>
<!-- layer3_residual_add&#45;&gt;classifier_pool -->
<g id="edge32" class="edge"><title>layer3_residual_add&#45;&gt;classifier_pool</title>
<path fill="none" stroke="black" d="M2664.4,-65C2672.39,-65 2681.31,-65 2689.82,-65"/>
<polygon fill="black" stroke="black" points="2689.92,-68.5001 2699.92,-65 2689.92,-61.5001 2689.92,-68.5001"/>
</g>
<!-- classifier_flatten -->
<g id="node31" class="node"><title>classifier_flatten</title>
<g id="a_node31"><a xlink:title="Flatten {}">
<path fill="#fccde5" stroke="black" d="M2832,-83C2832,-83 2802,-83 2802,-83 2796,-83 2790,-77 2790,-71 2790,-71 2790,-59 2790,-59 2790,-53 2796,-47 2802,-47 2802,-47 2832,-47 2832,-47 2838,-47 2844,-53 2844,-59 2844,-59 2844,-71 2844,-71 2844,-77 2838,-83 2832,-83"/>
<text text-anchor="middle" x="2817" y="-60.8" font-family="Times,serif" font-size="14.00">flatten</text>
</a>
</g>
</g>
<!-- classifier_pool&#45;&gt;classifier_flatten -->
<g id="edge33" class="edge"><title>classifier_pool&#45;&gt;classifier_flatten</title>
<path fill="none" stroke="black" d="M2754.4,-65C2762.39,-65 2771.31,-65 2779.82,-65"/>
<polygon fill="black" stroke="black" points="2779.92,-68.5001 2789.92,-65 2779.92,-61.5001 2779.92,-68.5001"/>
</g>
<!-- classifier_linear -->
<g id="node32" class="node"><title>classifier_linear</title>
<g id="a_node32"><a xlink:title="Linear {&#39;in_features&#39;: 512, &#39;out_features&#39;: 10, &#39;bias&#39;: None}">
<path fill="#bc80bd" stroke="black" d="M2922,-83C2922,-83 2892,-83 2892,-83 2886,-83 2880,-77 2880,-71 2880,-71 2880,-59 2880,-59 2880,-53 2886,-47 2892,-47 2892,-47 2922,-47 2922,-47 2928,-47 2934,-53 2934,-59 2934,-59 2934,-71 2934,-71 2934,-77 2928,-83 2922,-83"/>
<text text-anchor="middle" x="2907" y="-60.8" font-family="Times,serif" font-size="14.00">linear</text>
</a>
</g>
</g>
<!-- classifier_flatten&#45;&gt;classifier_linear -->
<g id="edge34" class="edge"><title>classifier_flatten&#45;&gt;classifier_linear</title>
<path fill="none" stroke="black" d="M2844.4,-65C2852.39,-65 2861.31,-65 2869.82,-65"/>
<polygon fill="black" stroke="black" points="2869.92,-68.5001 2879.92,-65 2869.92,-61.5001 2869.92,-68.5001"/>
</g>
<!-- classifier_logits -->
<g id="node33" class="node"><title>classifier_logits</title>
<g id="a_node33"><a xlink:title="Mul {&#39;weight&#39;: 0.125}">
<path fill="#ccebc5" stroke="black" d="M3012,-83C3012,-83 2982,-83 2982,-83 2976,-83 2970,-77 2970,-71 2970,-71 2970,-59 2970,-59 2970,-53 2976,-47 2982,-47 2982,-47 3012,-47 3012,-47 3018,-47 3024,-53 3024,-59 3024,-59 3024,-71 3024,-71 3024,-77 3018,-83 3012,-83"/>
<text text-anchor="middle" x="2997" y="-60.8" font-family="Times,serif" font-size="14.00">logits</text>
</a>
</g>
</g>
<!-- classifier_linear&#45;&gt;classifier_logits -->
<g id="edge35" class="edge"><title>classifier_linear&#45;&gt;classifier_logits</title>
<path fill="none" stroke="black" d="M2934.4,-65C2942.39,-65 2951.31,-65 2959.82,-65"/>
<polygon fill="black" stroke="black" points="2959.92,-68.5001 2969.92,-65 2959.92,-61.5001 2959.92,-68.5001"/>
</g>
<!-- input -->
<g id="node34" class="node"><title>input</title>
<path fill="#ffffff" stroke="black" d="M42,-96C42,-96 12,-96 12,-96 6,-96 0,-90 0,-84 0,-84 0,-72 0,-72 0,-66 6,-60 12,-60 12,-60 42,-60 42,-60 48,-60 54,-66 54,-72 54,-72 54,-84 54,-84 54,-90 48,-96 42,-96"/>
<text text-anchor="middle" x="27" y="-73.8" font-family="Times,serif" font-size="14.00">input</text>
</g>
<!-- input&#45;&gt;prep_conv -->
<g id="edge1" class="edge"><title>input&#45;&gt;prep_conv</title>
<path fill="none" stroke="black" d="M54.4029,-78C62.3932,-78 71.3106,-78 79.8241,-78"/>
<polygon fill="black" stroke="black" points="79.919,-81.5001 89.919,-78 79.919,-74.5001 79.919,-81.5001"/>
</g>
</g>
</svg>
